/* XPM */
static const char *solidcoin16_xpm[] = {
"16 16 256 3",
"000 c #6648B7",
"001 c #6658B1",
"002 c #714ECA",
"003 c #7651CA",
"004 c #7852CA",
"005 c #7350DA",
"006 c #745FD6",
"007 c #7E56D0",
"008 c #7E56E5",
"009 c #7E56EB",
"010 c #9778A2",
"011 c #9B7AA4",
"012 c #9E7FA1",
"013 c #9670BD",
"014 c #9C76B2",
"015 c #9871BD",
"016 c #8157DB",
"017 c #895BDF",
"018 c #845AE6",
"019 c #8358EB",
"020 c #875BEE",
"021 c #895DE7",
"022 c #885BEE",
"023 c #895BEE",
"024 c #895CEE",
"025 c #8A5CEC",
"026 c #8D5DEC",
"027 c #8C5DEF",
"028 c #8D5DEF",
"029 c #8C5EEF",
"030 c #8F5EEF",
"031 c #8D5EF0",
"032 c #915FEF",
"033 c #925FEF",
"034 c #915EF0",
"035 c #915FF0",
"036 c #925FF0",
"037 c #8162C0",
"038 c #8268D0",
"039 c #8073C8",
"040 c #8874C1",
"041 c #887AD4",
"042 c #9167CD",
"043 c #926DC0",
"044 c #976BD1",
"045 c #9969D9",
"046 c #9971C0",
"047 c #8C60E9",
"048 c #8B71E0",
"049 c #8D78E4",
"050 c #9161E6",
"051 c #9364E0",
"052 c #9464E5",
"053 c #9061E8",
"054 c #9260EA",
"055 c #9360EE",
"056 c #9360EF",
"057 c #9461ED",
"058 c #9561EF",
"059 c #9462EE",
"060 c #9661EF",
"061 c #9663ED",
"062 c #9763EC",
"063 c #9662EE",
"064 c #9662EF",
"065 c #9762EE",
"066 c #9762EF",
"067 c #9763EE",
"068 c #9763EF",
"069 c #9664E8",
"070 c #9862EF",
"071 c #9863EF",
"072 c #9963EE",
"073 c #9963EF",
"074 c #9A63EE",
"075 c #9B64EF",
"076 c #9460F0",
"077 c #9561F0",
"078 c #9661F0",
"079 c #9762F0",
"080 c #9963F0",
"081 c #967DEB",
"082 c #9C7CEF",
"083 c #9473F0",
"084 c #958474",
"085 c #A68E7D",
"086 c #A7936B",
"087 c #AB9473",
"088 c #B49E6F",
"089 c #BAAD4E",
"090 c #BEAE53",
"091 c #BCAC56",
"092 c #B4A065",
"093 c #B7A367",
"094 c #B5A16D",
"095 c #C7BB3F",
"096 c #C9BB45",
"097 c #C9BD40",
"098 c #CAC037",
"099 c #D5CD2A",
"100 c #D7CE2E",
"101 c #D2C735",
"102 c #D5CB33",
"103 c #D8D127",
"104 c #DBD325",
"105 c #DDD623",
"106 c #DCD427",
"107 c #DFD822",
"108 c #E1DA23",
"109 c #E2DA24",
"110 c #EBE41F",
"111 c #EDE61F",
"112 c #ECE520",
"113 c #EEE720",
"114 c #CDC140",
"115 c #9F8587",
"116 c #A58D81",
"117 c #A48A88",
"118 c #AA8F82",
"119 c #A28593",
"120 c #A38693",
"121 c #A2839A",
"122 c #A5859E",
"123 c #AA9085",
"124 c #9681E4",
"125 c #9F86EE",
"126 c #A188ED",
"127 c #A680F0",
"128 c #A289F0",
"129 c #A9A5DA",
"130 c #B9B9DF",
"131 c #BAB9DF",
"132 c #A9A4E9",
"133 c #ADA9E5",
"134 c #B7AFEF",
"135 c #B5B6E1",
"136 c #B7B0EC",
"137 c #B9B9E5",
"138 c #BFB2F6",
"139 c #C2B9F6",
"140 c #C7BBF7",
"141 c #CED0F0",
"142 c #D0C9F8",
"143 c #D1CBF9",
"144 c #D3CEF9",
"145 c #D5CFF9",
"146 c #D1D4F1",
"147 c #D4D5F2",
"148 c #DDDDFA",
"149 c #DEDDFA",
"150 c #E0E1FB",
"151 c #E2E2FB",
"152 c #E6E6FB",
"153 c #E6E7FB",
"154 c #E6E8FB",
"155 c #E7E9FB",
"156 c #EDEFFC",
"157 c #EEF0FC",
"158 c #EFF0FC",
"159 c #EFF1FC",
"160 c #F0F1FC",
"161 c #F0F2FC",
"162 c #F1F2FC",
"163 c #F1F3FD",
"164 c #FBFBFD",
"165 c #FBFCFD",
"166 c #FCFCFD",
"167 c #FDFDFD",
"168 c #FDFDFE",
"169 c #FEFEFE",
"170 c black",
"171 c black",
"172 c black",
"173 c black",
"174 c black",
"175 c black",
"176 c black",
"177 c black",
"178 c black",
"179 c black",
"180 c black",
"181 c black",
"182 c black",
"183 c black",
"184 c black",
"185 c black",
"186 c black",
"187 c black",
"188 c black",
"189 c black",
"190 c black",
"191 c black",
"192 c black",
"193 c black",
"194 c black",
"195 c black",
"196 c black",
"197 c black",
"198 c black",
"199 c black",
"200 c black",
"201 c black",
"202 c black",
"203 c black",
"204 c black",
"205 c black",
"206 c black",
"207 c black",
"208 c black",
"209 c black",
"210 c black",
"211 c black",
"212 c black",
"213 c black",
"214 c black",
"215 c black",
"216 c black",
"217 c black",
"218 c black",
"219 c black",
"220 c black",
"221 c black",
"222 c black",
"223 c black",
"224 c black",
"225 c black",
"226 c black",
"227 c black",
"228 c black",
"229 c black",
"230 c black",
"231 c black",
"232 c black",
"233 c black",
"234 c black",
"235 c black",
"236 c black",
"237 c black",
"238 c black",
"239 c black",
"240 c black",
"241 c black",
"242 c black",
"243 c black",
"244 c black",
"245 c black",
"246 c black",
"247 c black",
"248 c black",
"249 c black",
"250 c black",
"251 c black",
"252 c black",
"253 c black",
"254 c black",
"255 c black",
"169169169169164156141135137146158166169169169169",
"169169169156132006005018084037040134161169169169",
"169168152049008033050116105097123026125155169169",
"169157081019028058092113113113106042063128163169",
"166138009028031052104111115101113120079057139167",
"158083022029035051107113012095111122070080082163",
"149020023027058068090113102043014045073077059150",
"143024023027077078044100113091062071070077057144",
"142025034030058117121010109112011078078076055145",
"148021056032053103111015094113093066033036067151",
"160048063034047099113087096113088056056060127163",
"166136016060028085110113113108046056077065140166",
"169160041017066061098089114013064064072126162169",
"169169153039002069086119118075074054124154169169",
"169169168159129001000004007003038133160169169169",
"169169169169165157147130131147157166169169169169"
};
