/* XPM */
static const char *solidcoin32_xpm[] = {
"32 32 256 3",
"000 c #413389",
"001 c #423393",
"002 c #49389E",
"003 c #4F3CA6",
"004 c #503BA5",
"005 c #523DAE",
"006 c #5A40AE",
"007 c #5C4EA1",
"008 c #5E45BE",
"009 c #6145B7",
"010 c #6045BB",
"011 c #6056A2",
"012 c #665AB6",
"013 c #735DAE",
"014 c #715EBE",
"015 c #765BBE",
"016 c #5B43C0",
"017 c #5D45C1",
"018 c #6247C2",
"019 c #674CCD",
"020 c #664AD2",
"021 c #694BD5",
"022 c #694CD7",
"023 c #6557C3",
"024 c #6754CD",
"025 c #6B57C6",
"026 c #7254D3",
"027 c #7250DF",
"028 c #7652D8",
"029 c #7654DF",
"030 c #7954D3",
"031 c #7858D2",
"032 c #7D5ADF",
"033 c #7351E2",
"034 c #7351E5",
"035 c #7452E3",
"036 c #7854E5",
"037 c #7B55EC",
"038 c #7D58E3",
"039 c #7562C5",
"040 c #7A6CC2",
"041 c #7C65D2",
"042 c #7B61DE",
"043 c #7F6AD4",
"044 c #7D68D9",
"045 c #88777B",
"046 c #8D7C74",
"047 c #8E797E",
"048 c #957F7C",
"049 c #8E768C",
"050 c #8C7195",
"051 c #8E719C",
"052 c #977E85",
"053 c #937A89",
"054 c #907790",
"055 c #927599",
"056 c #957997",
"057 c #95799C",
"058 c #8A6BAD",
"059 c #8D6CB1",
"060 c #8D70A1",
"061 c #906FAF",
"062 c #926DBB",
"063 c #9274A3",
"064 c #9272A8",
"065 c #9272B1",
"066 c #8257DC",
"067 c #8359DD",
"068 c #8157EA",
"069 c #865AE2",
"070 c #845AE7",
"071 c #835BE8",
"072 c #8258EC",
"073 c #8559EA",
"074 c #8559ED",
"075 c #895BEA",
"076 c #885BED",
"077 c #895CEA",
"078 c #8A5CEE",
"079 c #8C5DEB",
"080 c #8E5DEE",
"081 c #8C5DF0",
"082 c #905FE7",
"083 c #915EEE",
"084 c #915EF0",
"085 c #8C66C5",
"086 c #8B64C8",
"087 c #8D65CB",
"088 c #8E65CD",
"089 c #8661DD",
"090 c #826BDE",
"091 c #8E65D1",
"092 c #8A63DE",
"093 c #8E64D8",
"094 c #807EC6",
"095 c #8374D8",
"096 c #8878D7",
"097 c #9167CC",
"098 c #926CC3",
"099 c #916ACB",
"100 c #9266D7",
"101 c #9265DD",
"102 c #936BD3",
"103 c #9568DB",
"104 c #986ADA",
"105 c #8466E4",
"106 c #8568E1",
"107 c #8D61E1",
"108 c #8F62E9",
"109 c #8B70E7",
"110 c #9163E2",
"111 c #9161E7",
"112 c #9364E1",
"113 c #9364E4",
"114 c #9562E5",
"115 c #9567E2",
"116 c #9566E4",
"117 c #9562ED",
"118 c #9769E1",
"119 c #936EEF",
"120 c #9967E6",
"121 c #9964ED",
"122 c #9C6AE5",
"123 c #9D69EB",
"124 c #9260F0",
"125 c #9561F0",
"126 c #9A63F0",
"127 c #9474EC",
"128 c #9079E4",
"129 c #967FEB",
"130 c #9879EE",
"131 c #9E7DF0",
"132 c #A066EF",
"133 c #AA7EF1",
"134 c #ADA23F",
"135 c #B3AA32",
"136 c #B6AE32",
"137 c #B6AB3F",
"138 c #BAAE3E",
"139 c #BEB62F",
"140 c #BDB433",
"141 c #BBB039",
"142 c #BBB03C",
"143 c #BEB338",
"144 c #998767",
"145 c #9A8864",
"146 c #9F8C6B",
"147 c #9C8771",
"148 c #A69A43",
"149 c #AA9D49",
"150 c #A49653",
"151 c #A2935A",
"152 c #A79950",
"153 c #A79855",
"154 c #A79958",
"155 c #AA9C50",
"156 c #A28F66",
"157 c #A69461",
"158 c #A7936C",
"159 c #AB9960",
"160 c #ADA046",
"161 c #B0A347",
"162 c #B4A844",
"163 c #B7AA49",
"164 c #BAAE43",
"165 c #C6BF27",
"166 c #C1B92C",
"167 c #C4BC2B",
"168 c #C0B638",
"169 c #C8BF31",
"170 c #DED81E",
"171 c #C7C027",
"172 c #C9C227",
"173 c #CCC42C",
"174 c #CBC230",
"175 c #CAC035",
"176 c #D2CA26",
"177 c #D3CC22",
"178 c #D4CD26",
"179 c #D3CB29",
"180 c #D7D025",
"181 c #D9D221",
"182 c #D9D124",
"183 c #DBD420",
"184 c #DED721",
"185 c #E2DB1F",
"186 c #E0D920",
"187 c #E3DC21",
"188 c #E4DD20",
"189 c #EBE41F",
"190 c #E9E220",
"191 c #EBE420",
"192 c #EDE620",
"193 c #9D8781",
"194 c #8581BE",
"195 c #8782CB",
"196 c #8685C8",
"197 c #8F8CD1",
"198 c #8D88DB",
"199 c #908CC6",
"200 c #938FCE",
"201 c #9390D4",
"202 c #9D97D9",
"203 c #9B9CD7",
"204 c #9C9ADF",
"205 c #9A83EC",
"206 c #9A91E7",
"207 c #9F97E2",
"208 c #A086F0",
"209 c #A089F0",
"210 c #AF8BF1",
"211 c #A99FEB",
"212 c #A2A3DA",
"213 c #A7A6DC",
"214 c #A8A6DC",
"215 c #ADA3EC",
"216 c #B5A3F4",
"217 c #B6ABF5",
"218 c #B9AAF5",
"219 c #BDB1F6",
"220 c #BEC1F0",
"221 c #C2BAF7",
"222 c #C1C6EF",
"223 c #C3C4F2",
"224 c #C4C3F7",
"225 c #C4C6F4",
"226 c #C3C3F8",
"227 c #C5C8F2",
"228 c #C8C3F8",
"229 c #C9C5F8",
"230 c #C8CBF2",
"231 c #C8C9F7",
"232 c #C9CCF4",
"233 c #CDCDF9",
"234 c #CED0F8",
"235 c #D2D5F9",
"236 c #D6D9F9",
"237 c #D9DDFA",
"238 c #DCDFFB",
"239 c #DDE1FB",
"240 c #E0E3FB",
"241 c #E2E5FB",
"242 c #E4E7FB",
"243 c #E5E8FB",
"244 c #E6E9FC",
"245 c #E8EBFC",
"246 c #E9ECFC",
"247 c #ECEEFC",
"248 c #EEF0FC",
"249 c #F1F2FC",
"250 c #F2F4FD",
"251 c #F4F6FD",
"252 c #F7F8FD",
"253 c #F9F9FD",
"254 c #FBFCFD",
"255 c #FDFDFD",
"255255255255255255255255255255255253251247245244244245248251254255255255255255255255255255255255",
"255255255255255255255255255251244237220203196094195197212222237245252255255255255255255255255255",
"255255255255255255255251241225198023016020033036013015029026043207230243253255255255255255255255",
"255255255255255255248236206024022033068076083113136135093046045031106211237249255255255255255255",
"255255255255254246224090021036078125125080110058183166054174175100075070129231247254255255255255",
"255255255255246228042027073083125124083087152178192191186190143091124117073127231248255255255255",
"255255255248229105033074084080084125097141192192192192192192189134093125126075127233250255255255",
"255255252236130033074081078081125125147190192192192192192192192189047083121126077209238253255255",
"255255241216034072080078078084125115140192192192168144173192192192161113125126126073217246255255",
"255252234119037074084081081080125091177192192189050121146189192192141112125125126117127235253255",
"255245216068072078081081081124125086181192192192053121158189192192163120121125126126078217247255",
"254237131037076078076081084125117103172192192192138102150185189192159123121125125126083209240254",
"251234124072078076076081124117126121150192192192190146099061052156055126121126125125125117235252",
"249221074072081074081080125125125125065176192192192184051121121123121121121126083125126079226250",
"247218076076084074076124125125126125121052188192192192169062117126117126121126083125132079219247",
"245216076080078074074124124125125125125115151190192192191149115125117117126125125125126079218246",
"245216074079084080076084125125087091110121102149189192192190049117117125125125124125125083218247",
"247218071083124124084080125117153173138154060097139192192192137101117125125125124124124083219248",
"249221038117124083124083084113168192192192193121057186192192180062117126124124124083125117229250",
"251234032117083117080084084092171192192189055117099173192192185063117125124080084124083123235253",
"254238128069117124083084080089165192192192048116063182192192186064124083125080125125083210240254",
"255246215019132083124080080108162192192192177160173192192192179086124124124125125125121219247255",
"255252234041028121125124080076054186192192192192192192192192157120125125124125126083133235253255",
"255255243215018114117126084078107145185192192192192192192139099117124080125125125123217245255255",
"255255253237096017121117121124124120154189176186192176151085117124083125126117117205238253255255",
"255255255249225039008111117126125121162170060155187056114125126126117126117132109225250255255255",
"255255255255247225014005066117126118140166102164178098125121126126121117082044225247255255255255",
"255255255255254247223040002018082114059051104151148103132132117117121067095225247254255255255255",
"255255255255255255249236202007001010067111114123122120121114114030025204237249255255255255255255",
"255255255255255255255252242230200011000001004006009009006003012201227243253255255255255255255255",
"255255255255255255255255255252244238227213199194194199214227238245252255255255255255255255255255",
"255255255255255255255255255255255253251248246244244246248251253255255255255255255255255255255255"
};
