/* XPM */
static const char *solidcoin48_xpm[] = {
"48 48 256 3",
"000 c #3A2D7E",
"001 c #7B6B6E",
"002 c #3A2D87",
"003 c #3E3194",
"004 c #443589",
"005 c #443597",
"006 c #4B39A6",
"007 c #503DB0",
"008 c #533FB8",
"009 c #574A9C",
"010 c #5641B5",
"011 c #5741BB",
"012 c #5842B6",
"013 c #5A43BB",
"014 c #5B4DB4",
"015 c #5E54BC",
"016 c #655BA7",
"017 c #645FB4",
"018 c #6C56BB",
"019 c #6E58BE",
"020 c #725CBD",
"021 c #74628C",
"022 c #6D65AA",
"023 c #6460B1",
"024 c #6A66B4",
"025 c #6C63B9",
"026 c #7268BF",
"027 c #7670B2",
"028 c #5A43C3",
"029 c #5E45C8",
"030 c #5D4DC4",
"031 c #6347C9",
"032 c #6449C2",
"033 c #6248CB",
"034 c #684DC5",
"035 c #684ACA",
"036 c #664AD1",
"037 c #6B4CD4",
"038 c #6B4CDB",
"039 c #6557C1",
"040 c #6F52CD",
"041 c #6D59D1",
"042 c #714FCC",
"043 c #704FDF",
"044 c #7256CA",
"045 c #795CCC",
"046 c #7655D3",
"047 c #7252DC",
"048 c #7459D1",
"049 c #775EDC",
"050 c #7953D6",
"051 c #7A55DC",
"052 c #7959D3",
"053 c #7D5BD8",
"054 c #6E4EE0",
"055 c #7351E3",
"056 c #7A55E4",
"057 c #7B54EA",
"058 c #7B59E2",
"059 c #7A66CB",
"060 c #796BC3",
"061 c #7B68CD",
"062 c #7B69D5",
"063 c #7670C1",
"064 c #797AC1",
"065 c #7D62E3",
"066 c #80735D",
"067 c #8B7D5D",
"068 c #826F76",
"069 c #836E7B",
"070 c #8B7B62",
"071 c #8C7A6A",
"072 c #897570",
"073 c #89737C",
"074 c #8F7B77",
"075 c #8F7A7B",
"076 c #907F6E",
"077 c #907D71",
"078 c #917D7F",
"079 c #856B93",
"080 c #8A6E97",
"081 c #897288",
"082 c #8D709C",
"083 c #917693",
"084 c #91759C",
"085 c #937994",
"086 c #8669A4",
"087 c #8B6EA4",
"088 c #8C6DAC",
"089 c #8262B2",
"090 c #8766BD",
"091 c #8D6CB5",
"092 c #8C6BBC",
"093 c #8D70A3",
"094 c #8F70B9",
"095 c #906FB5",
"096 c #9373AE",
"097 c #9772BE",
"098 c #865ADD",
"099 c #8057EA",
"100 c #8259E4",
"101 c #8459EC",
"102 c #8C5DE2",
"103 c #8B5CED",
"104 c #845AF0",
"105 c #8C5DF0",
"106 c #905EEE",
"107 c #915EF0",
"108 c #8B66C1",
"109 c #8C66CB",
"110 c #8D69C2",
"111 c #8F6CC8",
"112 c #8462D3",
"113 c #8064DC",
"114 c #8169D5",
"115 c #856AD9",
"116 c #8B63DB",
"117 c #8F68D0",
"118 c #8079D8",
"119 c #8A79DB",
"120 c #9067CC",
"121 c #916BC4",
"122 c #926CCB",
"123 c #986FCC",
"124 c #9266DB",
"125 c #926AD3",
"126 c #956ADB",
"127 c #996BDC",
"128 c #9A71DF",
"129 c #8964E4",
"130 c #8E62EB",
"131 c #8A6BE2",
"132 c #8F6AE9",
"133 c #8E60F0",
"134 c #8970E9",
"135 c #9365E3",
"136 c #9561ED",
"137 c #9669E1",
"138 c #946BEA",
"139 c #9A64E6",
"140 c #9A64ED",
"141 c #9A69E3",
"142 c #9B69EB",
"143 c #9561F0",
"144 c #9B63F0",
"145 c #9C6FF0",
"146 c #9473ED",
"147 c #937DE9",
"148 c #9978EE",
"149 c #9970F0",
"150 c #9D7AF1",
"151 c #A269ED",
"152 c #A167F0",
"153 c #A679F0",
"154 c #9A9138",
"155 c #A0963E",
"156 c #A59B39",
"157 c #A99E3B",
"158 c #ABA13A",
"159 c #B5AE27",
"160 c #B3AA2E",
"161 c #B1A738",
"162 c #B3AA34",
"163 c #B3A93B",
"164 c #BCB426",
"165 c #BCB42B",
"166 c #BCB333",
"167 c #988D47",
"168 c #918254",
"169 c #93845B",
"170 c #928854",
"171 c #97885A",
"172 c #9B8C56",
"173 c #9B8C58",
"174 c #9C9144",
"175 c #9E914D",
"176 c #938363",
"177 c #94826A",
"178 c #9E8D62",
"179 c #978375",
"180 c #A09545",
"181 c #A1944B",
"182 c #A89C47",
"183 c #A49554",
"184 c #B2A643",
"185 c #C4BC2A",
"186 c #CDC61F",
"187 c #D3CD1E",
"188 c #CBC322",
"189 c #CBC329",
"190 c #CFC820",
"191 c #D2CB22",
"192 c #DAD321",
"193 c #E2DB1E",
"194 c #E2DB20",
"195 c #E7E01F",
"196 c #EBE41F",
"197 c #E7E020",
"198 c #EDE620",
"199 c #968082",
"200 c #8583C7",
"201 c #8C87C7",
"202 c #8880C9",
"203 c #8581D2",
"204 c #908CCE",
"205 c #9692DC",
"206 c #9798D6",
"207 c #9890D9",
"208 c #9380EA",
"209 c #978CE0",
"210 c #9985E9",
"211 c #988BE9",
"212 c #9EA1D8",
"213 c #A38BF1",
"214 c #AB83F1",
"215 c #A197E7",
"216 c #A198E8",
"217 c #A89EEB",
"218 c #AA93F2",
"219 c #B294F3",
"220 c #B29BF3",
"221 c #A5A5DD",
"222 c #ACA7E8",
"223 c #AEACEC",
"224 c #ADA3F4",
"225 c #B1ACED",
"226 c #B3A5F3",
"227 c #B4AAF5",
"228 c #B8A6F5",
"229 c #BAADF6",
"230 c #B6B6EC",
"231 c #B6B8EB",
"232 c #B3B1F2",
"233 c #BBB3F5",
"234 c #BBBAF3",
"235 c #BDC2F0",
"236 c #C1BDF7",
"237 c #C0C2F3",
"238 c #C4C4F8",
"239 c #C6C9F8",
"240 c #C9CEF3",
"241 c #C9CBF8",
"242 c #CDD2F6",
"243 c #CDD2F8",
"244 c #D1D6F7",
"245 c #D1D5F9",
"246 c #D5D9F9",
"247 c #D9DDFA",
"248 c #DEE1FB",
"249 c #E2E5FB",
"250 c #E5E8FB",
"251 c #EBEDFC",
"252 c #EEF0FC",
"253 c #F3F4FC",
"254 c #F7F8FD",
"255 c #FDFDFD",
"255255255255255255255255255255255255255255255255255255254254253252252251252251252253254254255255255255255255255255255255255255255255255255255255",
"255255255255255255255255255255255255255255255254253251249248246242240240240240244246248249252253255255255255255255255255255255255255255255255255",
"255255255255255255255255255255255255255254252249247243234206064024023023025026063200212235245247250253254255255255255255255255255255255255255255",
"255255255255255255255255255255255254251248245223203015007013036043055055044048051055047040061207231245249252255255255255255255255255255255255255",
"255255255255255255255255255255253249243232118030029037038043055099103102066170001053053020045052113209234246250253255255255255255255255255255255",
"255255255255255255255255255252247241211030033043055056101107107143106124162195160124088155181021056051131216243249253255255255255255255255255255",
"255255255255255255255254251246232113029055043101107143143106107106135090186195156092078192193199139101056100147234247252254255255255255255255255",
"255255255255255255254251246226049036055099103107143143107107130092073180193198191162160195187084136143136101100146232247251254255255255255255255",
"255255255255255255251246229047038056101107106143143107143135086157192196198198198198198198191073137106143143106056138233247252255255255255255255",
"255255255255255252247226058038057101106107106133107143136080165198198198198198198198198198198191070116143143140136057132233247253255255255255255",
"255255255255253248233132054057101107105105106143143143121158196198198198198198198198198198198198191079130136144144136100148236249254255255255255",
"255255255254250243150054056099106105103104107143143136073192198198198198198198198198198198198198198174112107140144144106101213244251255255255255",
"255255255252246220055057101103105105105103107143143137180195198198198198194157155187198198198198198164091106143144144144103100227247253255255255",
"255255254249236149055057104106105105104133107143143120165196198198198198175121111176193198198198198186093136143143143140144103148238250255255255",
"255255253245220099057099105107105105105133107143143108188196198198198196069139136084191198198198198190082140143143143144144136103224246254255255",
"255255249238145057099105105105105133105105107143136089187198198198198198072137140085192198198198198188096140144143143144144143101148239251254255",
"255253247226105057099103104105105133107107143143140108185198198198198198158111140179194198198198198185097140144143144143143144106132229248254255",
"255252245214057057105103104103105105133107143143140126160196198198198198192075128070186193195198198163123140143140143143143152143102213247252255",
"255250241145099101105103104101105105107143140144143142169194198198198198198185093111088081177175158176127140144144143143143143144103146243251255",
"254248236105057101105103101105105107107143143143143136087185198198198198198195156111142142141127123120139144140143143143143143144106130238249255",
"254247228104101101105103101104105107107143144143144143127176194198198198198198195070126136140140140140144143140140143107143143144136106232248254",
"254246220101104103106103104101105143143143143143143143136123181196198198198198198191078135143136144143140140143144143143143143152136130224247253",
"253245219104103105106103101104105143143143144143143143140139091160195198198198198198166087140143143140143140136144144107143143152106103220244253",
"252245218099107106103101101101105143107143107143143143143136142081185198198198198198197174125144136143143140143143143143143143144136101218246253",
"252245213101106103107107105101103107143143143135135138136136136137073188198198198198198194068135140143143143143143143143143143143143106218246253",
"253245218056136103107107107106106107143143106079067075082095122126125071194198198198198198158110136143143143143143107107143107107143136220246254",
"254246219056136106143107143107107106143107142178193193190185161071117125167195198198198198187081140143143143143143143143107143107136103228247253",
"254247227056136106136107107107107107133143135182195198198198198183126136095165198198198198198171137136136143143143107107107107143106136233249254",
"254249234058100136136107143106107106107143124162196198198198198177141143137172196198198198198157117144143143143106107107107143107103151238250255",
"255250241129047152103136107107106107107106112159198198198198196074139143142076193198198198198162109136143143107106105105107143143106153242251255",
"255252246210038139107136143106107107107103112159196198198198198177126136126172195198198198198163109106107106143107105107143143107142219246253255",
"255254247226046051152130143107107105107105116157196198198198198160081091075189196198198198198181124136136107143143107107143144103151233248254255",
"255255250238115028152136106143107105107133130171195198198198198196190164192195198198198198195072136106143107136143143143143140136214239250255255",
"255255253246215034037151106140107143105105103086185198198198198198198198198198198198198198165091140143143136107143143143144103151226247254255255",
"255255254249237114028102140136143143107103101098177192196198198198198198198198198198198193077137136143143106107143143143106140153239249255255255",
"255255255252246217032031151140140143143107105106109067187198198198198198198198198198193174109143143107106133143143143140136151224247253255255255",
"255255255255250243119013033151136136144143143107143137076192198195196198198198193165071109136143133133106143143144140106142208245251255255255255",
"255255255255254248234059010046151136140143143107143140179193193167175185198189070088124136143143143136143144144140106142134234249254255255255255",
"255255255255255252247223019007035142106144140143143142183195187091094166196184125140136143143143144140144144136136151065223247253255255255255255",
"255255255255255255251247223018006013102136136144140126163196165125096189198183135136136143152144144144140106136135041232246252255255255255255255",
"255255255255255255255251246222020006006050136136140124168162167127083191193179139143140144144144140136130140100113222246251254255255255255255255",
"255255255255255255255254252246230060005005011098144136116109092151088171154082142151152152136130136151106036061231247251254255255255255255255255",
"255255255255255255255255255252248242207016004003008050139140140136135141137135106136136139151151098029039205243248253255255255255255255255255255",
"255255255255255255255255255255254250246230202009004003006010042098135139139139140139098050035012014202231246250254255255255255255255255255255255",
"255255255255255255255255255255255254252248246230204016004000000002003005006005006005003005023204231244249252255255255255255255255255255255255255",
"255255255255255255255255255255255255255254252250247245237221201027022016016022027201221235244247250253254255255255255255255255255255255255255255",
"255255255255255255255255255255255255255255255255253251250248246244242240240242244247248250252253254255255255255255255255255255255255255255255255",
"255255255255255255255255255255255255255255255255255255254254253253252252252252253253254254255255255255255255255255255255255255255255255255255255"
};
