/* XPM */
static const char *solidcoin20_xpm[] = {
"20 20 256 3",
"000 c #5242A1",
"001 c #5D42AA",
"002 c #6346B0",
"003 c #6647BD",
"004 c #6048B7",
"005 c #684EB7",
"006 c #6053AD",
"007 c #6C58A3",
"008 c #685FAA",
"009 c #644CCA",
"010 c #6A4FC5",
"011 c #6C4DD2",
"012 c #7158CC",
"013 c #7453DF",
"014 c #735CD8",
"015 c #7953E3",
"016 c #7855E4",
"017 c #7C55EC",
"018 c #7468C3",
"019 c #7566D0",
"020 c #7863D1",
"021 c #8A6E9C",
"022 c #9A7E94",
"023 c #906EB1",
"024 c #906ABA",
"025 c #906BBD",
"026 c #9777A5",
"027 c #9371AF",
"028 c #9877A5",
"029 c #997AA2",
"030 c #9978A6",
"031 c #9672B3",
"032 c #9772B3",
"033 c #9773B2",
"034 c #9772B7",
"035 c #9875B0",
"036 c #9871BB",
"037 c #835FCF",
"038 c #8057DB",
"039 c #8A5EDD",
"040 c #855AEE",
"041 c #865AED",
"042 c #875AEE",
"043 c #875BEE",
"044 c #885BE2",
"045 c #8B5CE3",
"046 c #895BED",
"047 c #8A5BEC",
"048 c #8A5FEA",
"049 c #8A5CED",
"050 c #8A5CEE",
"051 c #8B5CEF",
"052 c #8D5DEE",
"053 c #8E5DEE",
"054 c #8F5DEF",
"055 c #8E5EEF",
"056 c #8F5EEF",
"057 c #8C5DF0",
"058 c #8C5EF0",
"059 c #8D5EF0",
"060 c #8E5EF0",
"061 c #8F5EF0",
"062 c #915EEF",
"063 c #915FEE",
"064 c #915FEF",
"065 c #925FEF",
"066 c #905EF0",
"067 c #915EF0",
"068 c #915FF0",
"069 c #925FF0",
"070 c #935FF0",
"071 c #8C65CB",
"072 c #8E65C8",
"073 c #8267D9",
"074 c #8F61DF",
"075 c #8876DA",
"076 c #9068C6",
"077 c #9369CA",
"078 c #9065DE",
"079 c #9567D9",
"080 c #9465DF",
"081 c #9569D3",
"082 c #9368D9",
"083 c #8B60E5",
"084 c #8E62EC",
"085 c #8E62ED",
"086 c #8E62EF",
"087 c #8C67E8",
"088 c #8A6BE6",
"089 c #8C6AEB",
"090 c #8F68F0",
"091 c #9362E6",
"092 c #9667E2",
"093 c #9260EF",
"094 c #9360EF",
"095 c #9361EF",
"096 c #9265ED",
"097 c #9562E8",
"098 c #9662EB",
"099 c #9561EC",
"100 c #9460EE",
"101 c #9460EF",
"102 c #9461EE",
"103 c #9661EF",
"104 c #9662EF",
"105 c #9663EE",
"106 c #9762EE",
"107 c #9762EF",
"108 c #9763EE",
"109 c #9763EF",
"110 c #9566EB",
"111 c #9664E9",
"112 c #9566EE",
"113 c #956EEE",
"114 c #9862EF",
"115 c #9863EE",
"116 c #9863EF",
"117 c #9963EF",
"118 c #9965ED",
"119 c #9A64ED",
"120 c #9A64EE",
"121 c #9A64EF",
"122 c #9B64EF",
"123 c #9F67ED",
"124 c #9B68EB",
"125 c #9360F0",
"126 c #9460F0",
"127 c #9461F0",
"128 c #9560F0",
"129 c #9561F0",
"130 c #9661F0",
"131 c #9762F0",
"132 c #9862F0",
"133 c #9963F0",
"134 c #9A63F0",
"135 c #9775EE",
"136 c #927DE6",
"137 c #9D72EF",
"138 c #A37BEF",
"139 c #B8AF36",
"140 c #A48C7D",
"141 c #AE9C61",
"142 c #AF9B6A",
"143 c #A69070",
"144 c #AD9872",
"145 c #B19F64",
"146 c #BBAD4E",
"147 c #BAAF4C",
"148 c #BDAF4B",
"149 c #BAAB50",
"150 c #BBAC54",
"151 c #BDAD56",
"152 c #B9A85E",
"153 c #BEB241",
"154 c #C2B73B",
"155 c #C3B932",
"156 c #C4B93C",
"157 c #CFC62E",
"158 c #C9C032",
"159 c #CDC430",
"160 c #CEC434",
"161 c #D6CF23",
"162 c #D6CE25",
"163 c #DBD421",
"164 c #DED623",
"165 c #DCD527",
"166 c #DDD624",
"167 c #D9D02A",
"168 c #DBD329",
"169 c #DFD820",
"170 c #E1DA20",
"171 c #E3DC22",
"172 c #E6DF21",
"173 c #EBE41F",
"174 c #ECE51F",
"175 c #EDE61F",
"176 c #E7E020",
"177 c #EDE620",
"178 c #EEE720",
"179 c #9F8587",
"180 c #9C8199",
"181 c #A2878B",
"182 c #A2868D",
"183 c #A68D84",
"184 c #A18491",
"185 c #AB9183",
"186 c #AC9480",
"187 c #9F82F1",
"188 c #9E9BE1",
"189 c #A29FD5",
"190 c #A29FDB",
"191 c #A288F0",
"192 c #AE8DF1",
"193 c #AEA7E9",
"194 c #AFAAE6",
"195 c #B4AFEF",
"196 c #B8AFEF",
"197 c #B5AAF1",
"198 c #BCBAEA",
"199 c #BDBCEE",
"200 c #BBB4F4",
"201 c #BEB0F6",
"202 c #BCB7F2",
"203 c #C0B8F6",
"204 c #C1BEF1",
"205 c #C6B9F7",
"206 c #C5BDF7",
"207 c #C4C1F5",
"208 c #C5C2F6",
"209 c #CAC6F8",
"210 c #D1D5F3",
"211 c #D2D6F4",
"212 c #D5D8F6",
"213 c #D5D9F6",
"214 c #DCDEFB",
"215 c #DEE0FA",
"216 c #DEE1FA",
"217 c #DFE2FB",
"218 c #E0E3F9",
"219 c #E0E2FB",
"220 c #E0E3FA",
"221 c #E1E3FA",
"222 c #E1E4FA",
"223 c #E2E4FB",
"224 c #E3E5FB",
"225 c #E4E6FB",
"226 c #E4E7FB",
"227 c #E6E9FB",
"228 c #E6E8FC",
"229 c #E7EAFC",
"230 c #ECEEFC",
"231 c #EDEFFC",
"232 c #EEF0FC",
"233 c #EFF1FC",
"234 c #F1F3FD",
"235 c #F2F3FD",
"236 c #F2F4FD",
"237 c #F3F5FD",
"238 c #F4F5FD",
"239 c #F4F6FD",
"240 c #F5F6FD",
"241 c #F8F9FD",
"242 c #F9F9FD",
"243 c #F9FAFD",
"244 c #FAFAFD",
"245 c #FAFBFD",
"246 c #FBFBFD",
"247 c #FEFEFE",
"248 c black",
"249 c black",
"250 c black",
"251 c black",
"252 c black",
"253 c black",
"254 c black",
"255 c black",
"247247247247247247241230216210211218231243247247247247247247",
"247247247247241215188019009011007012075193222245247247247247",
"247247247236202014015047068078161021139037088207239247247247",
"247247236197013049069101026158177169170025101048200240247247",
"247243206016046057101077164178178178178159074121084209246247",
"247223089041057058129183178178143149178177023131116135227247",
"243201017051058061103144178175027185178175032131132063203246",
"232187041043058125109184178178148180150155081117131116191235",
"225090050042060129131080160178174140118124120117127133113229",
"214086052040056129130104034166178171033107108109129133096217",
"214085053054056128031029076022176178154111129130126126112219",
"226087102069064125152178163082145178173024107126070128137229",
"233136099101062055147178162092181178178028094065066101192234",
"244196038100067059142178174153167178172072129101129106205246",
"247224020097103055071157178178178178141105093129104138228247",
"247244204010098114128030165156168179091095104117110208245247",
"247247238194004044116182146186151106134122115083195238247247",
"247247247237198006003039079036035119123045073199238247247247",
"247247247247243220189008000001002005018190221244247247247247",
"247247247247247247242232222212213222232243247247247247247247"
};
